# xmcd
#
# Track frame offsets: 
#        150
#        18478
#        31652
#        43533
#        63062
#        81912
#        98819
#        116387
#        131816
#        149971
#        165417
#        183949
#        207106
#
# Disc length: 2860 seconds
#
# Revision: 1
# Processed by: cddbd v1.5.2PL0 Copyright (c) Steve Scherf et al.
# Submitted via: ExactAudioCopyFreeDBPlugin 1.0
#
DISCID=a90b2a0d
DTITLE=Aloe Blacc - Good Things
DYEAR=2011
DGENRE=R&B
TTITLE0=I Need A Dollar
TTITLE1=Green Lights
TTITLE2=Hey Brother
TTITLE3=Miss Fortune
TTITLE4=Life So Hard
TTITLE5=Take Me Back
TTITLE6=Femme Fatale
TTITLE7=Loving You Is Killing Me
TTITLE8=Good Things
TTITLE9=You Make Me Smile
TTITLE10=If I
TTITLE11=Mama Hold My Hand
TTITLE12=Politician (Reprise)
EXTD=
EXTT0=
EXTT1=
EXTT2=
EXTT3=
EXTT4=
EXTT5=
EXTT6=
EXTT7=
EXTT8=
EXTT9=
EXTT10=
EXTT11=
EXTT12=
PLAYORDER=
